<svg width="949" height="304" viewBox="0 0 949 304" fill="none" xmlns="http://www.w3.org/2000/svg">
<path d="M821.749 166.164C821.749 183.261 811.844 191 800.333 191C789.527 191 783.407 184.916 783.407 164.898V123.684H756.015V177.821C756.015 202.158 766.638 216.529 789.138 216.529C801.732 216.529 812.891 210.761 821.895 202.84L823.331 214.728H848.885V123.684H821.713L821.749 166.164ZM227.018 111.686C225.533 111.686 224.082 112.126 222.847 112.951C221.612 113.776 220.65 114.949 220.082 116.321C219.514 117.693 219.365 119.202 219.655 120.659C219.944 122.115 220.659 123.453 221.709 124.503C222.759 125.553 224.097 126.268 225.554 126.558C227.01 126.847 228.52 126.699 229.891 126.13C231.263 125.562 232.436 124.6 233.261 123.365C234.086 122.13 234.526 120.679 234.526 119.194C234.528 118.208 234.335 117.231 233.958 116.319C233.581 115.407 233.028 114.579 232.331 113.881C231.633 113.184 230.805 112.631 229.893 112.254C228.982 111.878 228.005 111.684 227.018 111.686ZM151.988 2C122.321 2.00241 93.3214 10.8018 68.6557 27.2855C43.9899 43.7691 24.7659 67.1968 13.4146 94.6059C2.06337 122.015 -0.905397 152.175 4.88376 181.271C10.6729 210.367 24.96 237.094 45.9383 258.07C66.9167 279.047 93.6442 293.332 122.741 299.119C151.838 304.905 181.997 301.934 209.405 290.581C236.814 279.227 260.24 260.001 276.721 235.334C293.203 210.667 302 181.667 302 152C302 132.301 298.12 112.794 290.581 94.5947C283.042 76.395 271.992 59.8586 258.062 45.9297C244.132 32.0007 227.594 20.9521 209.394 13.4146C191.194 5.87709 171.687 1.9984 151.988 2ZM220.216 214.752C211.477 224.406 200.821 232.131 188.929 237.436C177.037 242.741 164.17 245.509 151.148 245.563H150.978C137.837 245.545 124.848 242.764 112.852 237.399C100.857 232.034 90.1236 224.207 81.3503 214.424C72.497 204.649 65.8313 193.097 61.7982 180.54C57.7651 167.983 56.4575 154.711 57.9626 141.608C60.3634 120.631 69.7645 101.076 84.6479 86.0994C99.5313 71.1233 119.028 61.6009 139.99 59.0698C143.625 58.6478 147.282 58.4365 150.941 58.4371C171.571 58.396 191.624 65.2485 207.914 77.9065C208.431 78.3019 208.855 78.8071 209.153 79.3857C209.452 79.9643 209.619 80.602 209.642 81.2528C209.665 81.9063 209.544 82.5569 209.287 83.1584C209.031 83.7599 208.645 84.2975 208.157 84.733L198.228 93.6281C197.183 94.5612 195.832 95.0767 194.431 95.0762C193.234 95.0747 192.065 94.7051 191.085 94.0175C179.331 85.7963 165.334 81.3869 150.99 81.3867C141.041 81.4076 131.208 83.5263 122.134 87.6044C113.059 91.6826 104.946 97.6285 98.3252 105.054C91.658 112.462 86.6509 121.209 83.6394 130.71C80.6279 140.21 79.6814 150.245 80.8635 160.141C82.7372 175.945 89.8794 190.657 101.138 201.905C112.397 213.153 127.117 220.281 142.922 222.139C145.606 222.434 148.303 222.584 151.002 222.589C160.321 222.6 169.548 220.75 178.142 217.148C186.737 213.545 194.525 208.263 201.051 201.611C201.593 201.061 202.239 200.624 202.951 200.325C203.664 200.026 204.428 199.872 205.2 199.87C206.321 199.87 207.417 200.201 208.352 200.82L219.377 208.048C219.912 208.404 220.365 208.87 220.705 209.416C221.045 209.962 221.264 210.574 221.348 211.211C221.426 211.848 221.366 212.495 221.17 213.106C220.975 213.717 220.649 214.279 220.216 214.752ZM227.018 141.839C222.539 141.839 218.161 140.511 214.437 138.023C210.713 135.535 207.811 131.998 206.097 127.86C204.383 123.722 203.934 119.169 204.808 114.776C205.682 110.383 207.839 106.348 211.006 103.181C214.173 100.014 218.208 97.8574 222.6 96.9837C226.993 96.1099 231.546 96.5583 235.684 98.2723C239.822 99.9863 243.359 102.889 245.847 106.613C248.336 110.337 249.664 114.715 249.664 119.194C249.664 122.168 249.078 125.113 247.94 127.86C246.802 130.607 245.134 133.104 243.031 135.207C240.928 137.309 238.432 138.978 235.684 140.116C232.937 141.254 229.992 141.839 227.018 141.839ZM724.512 112.708C727.112 112.715 729.657 111.951 731.823 110.511C733.989 109.071 735.679 107.022 736.679 104.621C737.679 102.22 737.945 99.5766 737.442 97.0249C736.939 94.4732 735.69 92.1281 733.854 90.2866C732.017 88.445 729.676 87.1897 727.125 86.6797C724.575 86.1696 721.931 86.4277 719.527 87.4213C717.124 88.4149 715.069 90.0993 713.623 92.2613C712.178 94.4232 711.406 96.9655 711.406 99.5663C711.387 101.294 711.712 103.009 712.363 104.61C713.015 106.211 713.979 107.666 715.199 108.889C716.419 110.113 717.871 111.081 719.47 111.737C721.07 112.393 722.783 112.723 724.512 112.708ZM517.502 121.847C489.612 121.847 471.968 143.446 471.968 168.646C471.968 194.565 490.513 216.529 519.133 216.529C545.052 216.529 559.289 197.802 561.43 185.56L537.848 183.042C535.774 186.016 532.994 188.43 529.757 190.065C526.521 191.701 522.929 192.507 519.303 192.411C505.273 192.411 499.688 184.66 499.153 177.468H563.049V170.52C563.049 144.018 545.77 121.847 517.502 121.847ZM499.153 158.96C499.688 151.939 506.709 146.001 517.502 146.001C528.454 146.001 535.329 152.085 535.865 158.96H499.153ZM919.096 160.408C899.298 153.923 894.76 153.387 894.76 149.603C894.76 145.818 899.98 144.383 904.3 144.383C908.62 144.383 915.105 146.001 915.251 151.586H942.618C942.253 135.56 928.016 121.883 903.375 121.883C884.66 121.883 867.381 132.324 867.381 149.603C867.381 164.728 878.722 172.82 895.636 177.505C913.633 182.543 919.401 183.443 919.401 188.457C919.401 192.594 913.097 194.042 908.06 194.042C898.69 194.042 892.399 190.623 891.851 185.402H864.728C865.263 206.636 882.725 216.541 907.561 216.541C928.624 216.541 946.621 207.172 946.621 188.992C946.634 178.941 941.778 167.6 919.096 160.408ZM575.473 214.765H602.645V79.7683H575.473V214.765ZM711.004 214.765H738.177V123.684H711.004V214.765ZM356.089 150.856C356.089 188.298 384.538 216.566 420.167 216.566C440.696 216.566 453.107 207.926 457.427 204.142V176.957C454.373 180.742 442.679 190.817 423.599 190.817C401.817 190.817 383.273 175.156 383.273 150.856C383.273 126.556 401.817 110.7 423.599 110.7C442.679 110.7 454.373 120.958 457.427 124.743V97.5828C453.107 93.7985 440.696 85.1589 420.167 85.1589C384.49 85.1589 356.089 113.426 356.089 150.856ZM670.739 160.408C650.941 153.923 646.402 153.387 646.402 149.603C646.402 145.818 651.623 144.383 655.942 144.383C660.262 144.383 666.736 146.001 666.894 151.586H694.261C693.896 135.56 679.659 121.883 655.018 121.883C636.303 121.883 619.024 132.324 619.024 149.603C619.024 164.728 630.352 172.82 647.279 177.505C665.276 182.543 671.031 183.443 671.031 188.457C671.031 192.594 664.74 194.042 659.703 194.042C650.333 194.042 644.042 190.623 643.494 185.402H616.334C616.87 206.636 634.331 216.541 659.167 216.541C680.231 216.541 698.228 207.172 698.228 188.992C698.228 178.941 693.372 167.6 670.691 160.408H670.739Z" fill="url(#paint0_linear)"/>
<defs>
<linearGradient id="paint0_linear" x1="180.53" y1="239.302" x2="786.134" y2="-6.00782" gradientUnits="userSpaceOnUse">
<stop stop-color="#3228BA"/>
<stop offset="1" stop-color="#F63AAC"/>
</linearGradient>
</defs>
</svg>
