<svg width="632" height="195" viewBox="0 0 632 195" fill="none" xmlns="http://www.w3.org/2000/svg">
<g filter="url(#filter0_d_1387_754)">
<path d="M266.944 79.9231V63.8938C264.397 61.6646 257.072 56.5692 244.97 56.5692C223.952 56.5692 207.18 73.2354 207.18 95.3154C207.18 117.395 223.952 134.062 244.97 134.062C257.072 134.062 264.397 128.966 266.944 126.737V110.708C265.14 112.937 258.24 118.882 246.987 118.882C234.143 118.882 223.209 109.646 223.209 95.3154C223.209 80.9846 234.143 71.6431 246.987 71.6431C258.24 71.6431 265.14 77.6938 266.944 79.9231ZM327.965 106.886C327.965 91.2815 317.774 78.2246 301.108 78.2246C284.654 78.2246 274.251 90.9631 274.251 105.825C274.251 121.111 285.185 134.062 302.063 134.062C317.349 134.062 325.736 123.022 327.009 115.803L313.103 114.317C311.086 117.289 307.371 119.837 302.169 119.837C293.889 119.837 290.599 115.272 290.28 111.026H327.965V106.886ZM301.108 92.4492C307.583 92.4492 311.617 96.0585 311.936 100.092H290.28C290.599 95.9523 294.739 92.4492 301.108 92.4492ZM350.095 53.3846H334.066V133H350.095V53.3846ZM356.872 115.697C357.19 128.223 367.487 134.062 382.137 134.062C394.557 134.062 405.172 128.542 405.172 117.82C405.172 111.875 402.306 105.188 388.93 100.942C377.253 97.12 374.6 96.8015 374.6 94.5723C374.6 92.4492 377.678 91.4938 380.226 91.4938C382.667 91.4938 386.595 92.4492 386.701 95.74H402.837C402.624 86.2923 394.238 78.2246 379.695 78.2246C368.655 78.2246 358.464 84.3815 358.464 94.5723C358.464 103.489 365.152 108.266 375.13 111.026C385.746 113.998 389.143 114.529 389.143 117.502C389.143 119.943 385.427 120.792 382.455 120.792C376.935 120.792 373.22 118.775 372.901 115.697H356.872ZM419.395 72.8108C423.748 72.8108 427.145 69.4138 427.145 65.0615C427.145 60.7092 423.748 57.3123 419.395 57.3123C415.043 57.3123 411.646 60.7092 411.646 65.0615C411.646 69.4138 415.043 72.8108 419.395 72.8108ZM427.463 79.2861H411.434V133H427.463V79.2861ZM475.539 79.2861V104.338C475.539 114.423 469.7 118.988 462.906 118.988C456.537 118.988 452.928 115.378 452.928 103.595V79.2861H436.792V111.238C436.792 125.569 443.056 134.062 456.325 134.062C463.756 134.062 470.337 130.665 475.645 125.994L476.494 133H491.568V79.2861H475.539ZM499.619 115.697C499.937 128.223 510.234 134.062 524.883 134.062C537.303 134.062 547.919 128.542 547.919 117.82C547.919 111.875 545.052 105.188 531.677 100.942C520 97.12 517.346 96.8015 517.346 94.5723C517.346 92.4492 520.425 91.4938 522.972 91.4938C525.414 91.4938 529.342 92.4492 529.448 95.74H545.583C545.371 86.2923 536.985 78.2246 522.442 78.2246C511.402 78.2246 501.211 84.3815 501.211 94.5723C501.211 103.489 507.899 108.266 517.877 111.026C528.492 113.998 531.889 114.529 531.889 117.502C531.889 119.943 528.174 120.792 525.202 120.792C519.682 120.792 515.966 118.775 515.648 115.697H499.619Z" fill="url(#paint0_linear_1387_754)"/>
<path d="M627.731 57.6308H608.305L589.622 82.4708L570.832 57.6308H551.406L579.856 95.3154L551.406 133H570.832L589.622 108.16L608.305 133H627.731L599.282 95.3154L627.731 57.6308Z" fill="url(#paint1_linear_1387_754)"/>
<path fill-rule="evenodd" clip-rule="evenodd" d="M95.5676 184.762L162.092 146.355C164.627 144.892 166.732 142.789 168.198 140.256C169.663 137.723 170.438 134.85 170.443 131.925V55.1017C170.441 52.1716 169.669 49.2934 168.203 46.756C166.738 44.2187 164.63 42.1113 162.092 40.6455L95.5676 2.23848C93.0306 0.772116 90.1519 0 87.2214 0C84.2909 0 81.4122 0.772116 78.8752 2.23848L12.3506 40.6455C9.81275 42.1113 7.70521 44.2187 6.23949 46.756C4.77377 49.2934 4.00146 52.1716 4 55.1017V131.898C4.00058 134.829 4.77251 137.707 6.23832 140.245C7.70412 142.782 9.81215 144.889 12.3506 146.355L78.8752 184.762C81.4122 186.228 84.2909 187 87.2214 187C90.1519 187 93.0306 186.228 95.5676 184.762ZM86.5714 148.236C101.866 148.211 116.576 141.647 126.928 130.23C127.436 129.671 127.673 128.918 127.577 128.165C127.481 127.408 127.062 126.735 126.427 126.319L119.99 122.091C119.439 121.729 118.802 121.538 118.146 121.538C117.233 121.538 116.374 121.899 115.724 122.555C107.897 130.457 97.5104 134.81 86.4794 134.81C84.9185 134.81 83.3314 134.721 81.7627 134.545C62.8785 132.431 47.6303 117.199 45.5077 98.3288C44.1713 86.4434 47.7933 75.0136 55.7079 66.1438C63.5226 57.3852 74.7131 52.3504 86.4794 52.3303C94.8602 52.3303 102.961 54.8814 109.906 59.7085C110.486 60.1099 111.162 60.3229 111.861 60.3229C112.691 60.3229 113.489 60.0179 114.11 59.4623L119.912 54.2609C120.487 53.7448 120.801 53.0033 120.772 52.226C120.744 51.453 120.378 50.7405 119.769 50.2725C110.121 42.8347 98.6094 38.9041 86.4794 38.9041C84.355 38.9041 82.1965 39.0286 80.0643 39.274C55.0147 42.1616 34.8606 62.4411 32.1429 87.495C30.4366 103.221 35.2839 118.33 45.7908 130.04C56.1663 141.603 70.9955 148.234 86.4768 148.236H86.5714Z" fill="url(#paint2_linear_1387_754)"/>
<mask id="mask0_1387_754" style="mask-type:alpha" maskUnits="userSpaceOnUse" x="4" y="0" width="167" height="187">
<path d="M162.092 146.355L95.5676 184.762C93.0306 186.228 90.1519 187 87.2214 187C84.2909 187 81.4122 186.228 78.8752 184.762L12.3506 146.355C9.81215 144.889 7.70412 142.782 6.23832 140.245C4.77251 137.707 4.00058 134.829 4 131.898V55.1017C4.00146 52.1716 4.77377 49.2934 6.23949 46.756C7.70521 44.2187 9.81275 42.1113 12.3506 40.6455L78.8752 2.23848C81.4122 0.772116 84.2909 0 87.2214 0C90.1519 0 93.0306 0.772116 95.5676 2.23848L162.092 40.6455C164.63 42.1113 166.738 44.2187 168.203 46.756C169.669 49.2934 170.441 52.1716 170.443 55.1017V131.925C170.438 134.85 169.663 137.723 168.198 140.256C166.732 142.789 164.627 144.892 162.092 146.355Z" fill="url(#paint3_linear_1387_754)"/>
</mask>
<g mask="url(#mask0_1387_754)">
<g style="mix-blend-mode:soft-light" opacity="0.61" filter="url(#filter1_f_1387_754)">
<path d="M80.1063 230.158L-7.7339 280.654C-11.0838 282.582 -14.8849 283.597 -18.7544 283.597C-22.6238 283.597 -26.425 282.582 -29.7749 280.654L-117.615 230.158C-120.967 228.232 -123.75 225.462 -125.686 222.125C-127.621 218.789 -128.641 215.005 -128.641 211.152V110.184C-128.639 106.332 -127.62 102.547 -125.684 99.2114C-123.749 95.8753 -120.966 93.1047 -117.615 91.1775L-29.7749 40.6819C-26.425 38.754 -22.6238 37.7389 -18.7544 37.7389C-14.8849 37.7389 -11.0838 38.754 -7.7339 40.6819L80.1063 91.1775C83.4573 93.1047 86.2401 95.8753 88.1754 99.2114C90.1108 102.547 91.1306 106.332 91.1325 110.184V211.187C91.1257 215.033 90.1035 218.811 88.1683 222.14C86.2331 225.47 83.453 228.235 80.1063 230.158Z" fill="black"/>
</g>
</g>
<mask id="mask1_1387_754" style="mask-type:alpha" maskUnits="userSpaceOnUse" x="4" y="0" width="167" height="187">
<path d="M162.092 146.355L95.5676 184.762C93.0306 186.228 90.1519 187 87.2214 187C84.2909 187 81.4122 186.228 78.8752 184.762L12.3506 146.355C9.81215 144.889 7.70412 142.782 6.23832 140.245C4.77251 137.707 4.00058 134.829 4 131.898V55.1017C4.00146 52.1716 4.77377 49.2934 6.23949 46.756C7.70521 44.2187 9.81275 42.1113 12.3506 40.6455L78.8752 2.23848C81.4122 0.772116 84.2909 0 87.2214 0C90.1519 0 93.0306 0.772116 95.5676 2.23848L162.092 40.6455C164.63 42.1113 166.738 44.2187 168.203 46.756C169.669 49.2934 170.441 52.1716 170.443 55.1017V131.925C170.438 134.85 169.663 137.723 168.198 140.256C166.732 142.789 164.627 144.892 162.092 146.355Z" fill="url(#paint4_linear_1387_754)"/>
</mask>
<g mask="url(#mask1_1387_754)">
<g filter="url(#filter2_f_1387_754)">
<path d="M159.224 97.5135L120.939 62.8782L120.138 59.2724L165.399 89.1771L159.224 97.5135Z" fill="url(#paint5_linear_1387_754)"/>
</g>
<g filter="url(#filter3_f_1387_754)">
<path d="M91.7861 97.5181L171.628 48.6915L175.628 55.7568L92.5861 98.9312L91.7861 97.5181Z" fill="url(#paint6_linear_1387_754)"/>
</g>
</g>
</g>
<defs>
<filter id="filter0_d_1387_754" x="0" y="0" width="631.731" height="195" filterUnits="userSpaceOnUse" color-interpolation-filters="sRGB">
<feFlood flood-opacity="0" result="BackgroundImageFix"/>
<feColorMatrix in="SourceAlpha" type="matrix" values="0 0 0 0 0 0 0 0 0 0 0 0 0 0 0 0 0 0 127 0" result="hardAlpha"/>
<feOffset dy="4"/>
<feGaussianBlur stdDeviation="2"/>
<feComposite in2="hardAlpha" operator="out"/>
<feColorMatrix type="matrix" values="0 0 0 0 0 0 0 0 0 0 0 0 0 0 0 0 0 0 0.25 0"/>
<feBlend mode="normal" in2="BackgroundImageFix" result="effect1_dropShadow_1387_754"/>
<feBlend mode="normal" in="SourceGraphic" in2="effect1_dropShadow_1387_754" result="shape"/>
</filter>
<filter id="filter1_f_1387_754" x="-148.641" y="17.7389" width="259.774" height="285.858" filterUnits="userSpaceOnUse" color-interpolation-filters="sRGB">
<feFlood flood-opacity="0" result="BackgroundImageFix"/>
<feBlend mode="normal" in="SourceGraphic" in2="BackgroundImageFix" result="shape"/>
<feGaussianBlur stdDeviation="10" result="effect1_foregroundBlur_1387_754"/>
</filter>
<filter id="filter2_f_1387_754" x="119.138" y="58.2724" width="47.2607" height="40.2411" filterUnits="userSpaceOnUse" color-interpolation-filters="sRGB">
<feFlood flood-opacity="0" result="BackgroundImageFix"/>
<feBlend mode="normal" in="SourceGraphic" in2="BackgroundImageFix" result="shape"/>
<feGaussianBlur stdDeviation="0.5" result="effect1_foregroundBlur_1387_754"/>
</filter>
<filter id="filter3_f_1387_754" x="90.7861" y="47.6915" width="85.8418" height="52.2397" filterUnits="userSpaceOnUse" color-interpolation-filters="sRGB">
<feFlood flood-opacity="0" result="BackgroundImageFix"/>
<feBlend mode="normal" in="SourceGraphic" in2="BackgroundImageFix" result="shape"/>
<feGaussianBlur stdDeviation="0.5" result="effect1_foregroundBlur_1387_754"/>
</filter>
<linearGradient id="paint0_linear_1387_754" x1="214.393" y1="133" x2="586.521" y2="94.5415" gradientUnits="userSpaceOnUse">
<stop stop-color="#020031"/>
<stop offset="0.432292" stop-color="#34215B"/>
<stop offset="1" stop-color="#E50593"/>
</linearGradient>
<linearGradient id="paint1_linear_1387_754" x1="549.433" y1="133" x2="640.016" y2="130.744" gradientUnits="userSpaceOnUse">
<stop stop-color="#D5078E"/>
<stop offset="1" stop-color="#E50593"/>
</linearGradient>
<linearGradient id="paint2_linear_1387_754" x1="23.7021" y1="187.03" x2="126.423" y2="6.79785" gradientUnits="userSpaceOnUse">
<stop offset="0.359375" stop-color="#262256"/>
<stop offset="1" stop-color="#FF009B"/>
</linearGradient>
<linearGradient id="paint3_linear_1387_754" x1="60.5634" y1="204.05" x2="207.95" y2="155.247" gradientUnits="userSpaceOnUse">
<stop stop-color="#3228BA"/>
<stop offset="1" stop-color="#3EEFE4"/>
</linearGradient>
<linearGradient id="paint4_linear_1387_754" x1="60.5634" y1="204.05" x2="207.95" y2="155.247" gradientUnits="userSpaceOnUse">
<stop stop-color="#3228BA"/>
<stop offset="1" stop-color="#3EEFE4"/>
</linearGradient>
<linearGradient id="paint5_linear_1387_754" x1="158.402" y1="96.9048" x2="116" y2="65.5" gradientUnits="userSpaceOnUse">
<stop stop-color="white" stop-opacity="0"/>
<stop offset="0.569655" stop-color="white"/>
<stop offset="1" stop-color="white" stop-opacity="0"/>
</linearGradient>
<linearGradient id="paint6_linear_1387_754" x1="93.3204" y1="93.0239" x2="171.894" y2="48.5407" gradientUnits="userSpaceOnUse">
<stop stop-color="white" stop-opacity="0"/>
<stop offset="0.489583" stop-color="white"/>
<stop offset="1" stop-color="white" stop-opacity="0"/>
</linearGradient>
</defs>
</svg>
